<?xml version="1.0" encoding="UTF-8"?>
<svg id="Layer_1" data-name="Layer 1" xmlns="http://www.w3.org/2000/svg" viewBox="0 0 575.11 423.11">
  <defs>
    <style>
      .cls-1 {
        fill: #f58220;
      }
    </style>
  </defs>
  <path class="cls-1" d="m327.96,193.1l.07,88.69c.03,41.1-33.26,74.44-74.36,74.47l-88.69.07c-17.28.01-31.27,14.03-31.26,31.3h0c.01,17.28,14.03,31.27,31.3,31.26l88.69-.07c75.65-.06,136.92-61.42,136.87-137.07l-.07-88.69c-.01-17.28-14.03-31.27-31.3-31.26h0c-17.28.01-31.27,14.03-31.26,31.3Z"/>
  <path class="cls-1" d="m247.09,141.32c-.03-41.1,33.26-74.44,74.36-74.47l88.69-.07c17.28-.01,31.27-14.03,31.26-31.3h0c-.01-17.28-14.03-31.27-31.3-31.26l-88.69.07c-75.65.06-136.92,61.42-136.87,137.07l.07,88.69c.01,17.28,14.03,31.27,31.3,31.26h0c17.28-.01,31.27-14.03,31.26-31.3l-.07-88.69Z"/>
</svg>